# xmcd
# 
# Track frame offsets:
#     150
#     17947
#     37021
#     51315
#     68204
#     86292
#     110970
#     128688
#     147059
#     166458
# 
# Disc length: 2492
# 
# Revision: 0
# Processed by: cddbd v1.5.2PL0 Copyright (c) Steve Scherf et al.
# Submitted via: fre:ac v1.0.31
# 
DISCID=8c09ba0a
DTITLE=Erik Cohen - Weisses Rauschen
DYEAR=0
DGENRE=Rock
TTITLE0=Hier Ist Nicht Hollywood
TTITLE1=Deine Dämonen
TTITLE2=Nur Ein Herzschlag
TTITLE3=Schattenland
TTITLE4=Regen
TTITLE5=Totenspinnengeist
TTITLE6=Neues Blut
TTITLE7=Der Heilige Gral
TTITLE8=Tapete
TTITLE9=Das Gute Gefühl
EXTD=
EXTT0=
EXTT1=
EXTT2=
EXTT3=
EXTT4=
EXTT5=
EXTT6=
EXTT7=
EXTT8=
EXTT9=
PLAYORDER=
